<?xml version="1.0" standalone="no"?>
<!DOCTYPE svg PUBLIC "-//W3C//DTD SVG 20010904//EN"
 "http://www.w3.org/TR/2001/REC-SVG-20010904/DTD/svg10.dtd">
<svg version="1.0" xmlns="http://www.w3.org/2000/svg"
 width="104.000000pt" height="104.000000pt" viewBox="0 0 104.000000 104.000000"
 preserveAspectRatio="xMidYMid meet">
<metadata>
Created by potrace 1.11, written by Peter Selinger 2001-2013
</metadata>
<g transform="translate(0.000000,104.000000) scale(0.100000,-0.100000)"
fill="#000000" stroke="none">
<path d="M430 1020 c-31 -9 -68 -25 -83 -34 -15 -10 -27 -16 -27 -12 0 3 -9
-2 -19 -11 -35 -32 -50 -43 -58 -43 -9 0 -47 -62 -45 -72 1 -5 -5 -8 -13 -8
-8 0 -15 -7 -15 -16 0 -9 -5 -12 -13 -8 -6 4 -9 4 -5 -1 4 -4 1 -20 -7 -35 -8
-15 -11 -30 -8 -34 4 -3 2 -6 -4 -6 -36 0 -66 -202 -48 -320 4 -30 9 -62 10
-70 2 -15 5 -22 31 -88 7 -18 14 -36 16 -40 3 -8 26 -37 76 -94 40 -45 150
-102 227 -118 78 -16 296 -3 303 18 2 6 9 9 15 7 7 -3 37 8 67 23 l55 28 3
262 c2 206 0 262 -10 263 -118 6 -311 9 -335 4 l-33 -6 0 -80 0 -80 48 1 c26
1 62 1 80 1 l32 -1 0 -105 c0 -102 -1 -105 -24 -111 -13 -3 -52 -3 -85 -1 -93
8 -141 49 -182 159 -29 77 -24 216 9 275 13 24 21 43 17 43 -13 0 80 82 103
91 36 14 149 11 187 -5 33 -14 35 -18 35 -63 l0 -48 54 0 c63 0 56 -15 78 164
12 102 12 104 -10 121 -27 22 -148 64 -161 56 -5 -4 -12 -2 -16 4 -10 16 -184
9 -245 -10z"/>
</g>
</svg>
